<svg width="24" height="24" viewBox="0 0 24 24" fill="none" xmlns="http://www.w3.org/2000/svg">
<rect width="24" height="24" rx="4" fill="#FEFEFE"/>
<rect x="0.25" y="0.25" width="23.5" height="23.5" rx="3.75" stroke="#DDEBFF" stroke-opacity="0.5" stroke-width="0.5"/>
<path fill-rule="evenodd" clip-rule="evenodd" d="M9.77778 17.9814H7.55556C7.24889 17.9814 7 17.7135 7 17.3833V6.61693C7 6.28676 7.24889 6.0188 7.55556 6.0188H13.1111C13.4178 6.0188 13.6667 6.28676 13.6667 6.61693V17.3833C13.6667 17.7135 13.4178 17.9814 13.1111 17.9814H10.8889V15.5889C10.8889 15.2587 10.64 14.9908 10.3333 14.9908C10.0267 14.9908 9.77778 15.2587 9.77778 15.5889V17.9814ZM14.7778 10.8038H16.4444C16.7511 10.8038 17 11.0718 17 11.402V17.3833C17 17.7135 16.7511 17.9814 16.4444 17.9814H14.7778V10.8038ZM9.77778 12.0001H10.8889C11.1956 12.0001 11.4444 11.7321 11.4444 11.402C11.4444 11.0718 11.1956 10.8038 10.8889 10.8038H9.77778C9.47111 10.8038 9.22222 11.0718 9.22222 11.402C9.22222 11.7321 9.47111 12.0001 9.77778 12.0001ZM9.77778 9.60758H10.8889C11.1956 9.60758 11.4444 9.33962 11.4444 9.00945C11.4444 8.67928 11.1956 8.41132 10.8889 8.41132H9.77778C9.47111 8.41132 9.22222 8.67928 9.22222 9.00945C9.22222 9.33962 9.47111 9.60758 9.77778 9.60758Z" fill="#3C83D7"/>
</svg>
