<svg width="164" height="32" viewBox="0 0 164 32" fill="none" xmlns="http://www.w3.org/2000/svg">
<path d="M53.8527 9.54053L51.0387 18.2499L48.2857 9.54053H45.7054L42.8609 18.1878L40.1384 9.54053H37.2432L41.2051 21.8434H44.1816L46.9244 13.5069L49.5962 21.8434H52.5625L56.5244 9.54053H53.8527Z" fill="#161C24"/>
<path d="M58.1802 21.8434V9.54053H60.984V21.8331H58.1802V21.8434Z" fill="#161C24"/>
<path d="M66.5005 21.8434V11.8603H62.6401V9.54053H73.1544V11.8603H69.2941V21.8331H66.5005V21.8434Z" fill="#161C24"/>
<path d="M83.0793 9.54053V14.3871H77.624V9.54053H74.8101V21.8434H77.624V16.8001H83.0793V21.8434H85.8729V9.54053H83.0793Z" fill="#161C24"/>
<path d="M94.1524 22.0505C93.1975 22.0505 92.3238 21.8952 91.5213 21.5742C90.7187 21.2531 90.0178 20.8182 89.4184 20.2382C88.8191 19.6686 88.3619 18.9955 88.0267 18.2188C87.7016 17.4421 87.5391 16.6033 87.5391 15.6919C87.5391 14.7703 87.7016 13.9211 88.0267 13.1547C88.3518 12.3884 88.8191 11.7153 89.4184 11.1457C90.0178 10.5761 90.7086 10.1308 91.5111 9.80975C92.3035 9.48871 93.1772 9.33337 94.1321 9.33337C95.087 9.33337 95.9607 9.48871 96.7632 9.79939C97.5657 10.1101 98.2565 10.5554 98.8559 11.125C99.4553 11.6945 99.9124 12.3677 100.248 13.1444C100.573 13.9211 100.735 14.7703 100.735 15.6919C100.735 16.6033 100.573 17.4525 100.248 18.2292C99.9226 19.0059 99.4553 19.679 98.8559 20.2589C98.2565 20.8285 97.5657 21.2738 96.7632 21.5845C95.9607 21.8952 95.0972 22.0505 94.1524 22.0505ZM94.1321 19.6479C94.6705 19.6479 95.1683 19.5547 95.6254 19.358C96.0826 19.1612 96.4787 18.8919 96.8241 18.5295C97.1695 18.1774 97.4337 17.7528 97.6267 17.2868C97.8197 16.8104 97.9111 16.2822 97.9111 15.7023C97.9111 15.112 97.8197 14.5839 97.6267 14.1178C97.4337 13.6415 97.1695 13.2272 96.8241 12.8751C96.4787 12.523 96.0826 12.2434 95.6254 12.0466C95.1683 11.8499 94.6705 11.7567 94.1321 11.7567C93.5937 11.7567 93.0959 11.8499 92.6286 12.0466C92.1714 12.2434 91.7651 12.5127 91.4299 12.8751C91.0946 13.2376 90.8305 13.6518 90.6375 14.1178C90.4445 14.5942 90.353 15.1224 90.353 15.7023C90.353 16.2926 90.4445 16.8208 90.6375 17.2868C90.8305 17.7631 91.0946 18.1774 91.4299 18.5295C91.7651 18.8919 92.1714 19.1612 92.6286 19.358C93.0959 19.5444 93.5937 19.6479 94.1321 19.6479Z" fill="#161C24"/>
<path d="M107.846 22.0506C106.14 22.0506 104.799 21.5638 103.834 20.5904C102.869 19.6169 102.391 18.2292 102.391 16.4065V9.54053H105.195V16.3341C105.195 17.4939 105.429 18.3328 105.906 18.8506C106.373 19.3684 107.034 19.6273 107.867 19.6273C108.72 19.6273 109.38 19.3684 109.848 18.8506C110.315 18.3328 110.559 17.4939 110.559 16.3341V9.54053H113.302V16.4065C113.302 18.2188 112.824 19.6169 111.859 20.5904C110.884 21.5638 109.553 22.0506 107.846 22.0506Z" fill="#161C24"/>
<path d="M118.777 21.9158V11.943H114.917V9.62329H125.431V11.943H121.571V21.9158H118.777Z" fill="#161C24"/>
<path d="M130.399 21.8434V9.54053H131.273V21.0357H138.221V21.8434H130.399Z" fill="#161C24"/>
<path d="M139.907 21.8434V9.54053H140.781V21.8331H139.907V21.8434Z" fill="#161C24"/>
<path d="M151.417 9.54053V20.2176L143.219 9.54053H142.478V21.8434H143.361V11.1664L151.58 21.8434H152.301V9.54053H151.417Z" fill="#161C24"/>
<path d="M162.724 21.8434H163.791L158.132 15.1431L163.435 9.54053H162.358L154.831 17.4421V9.54053H153.957V21.8434H154.831V18.602L157.533 15.7852L162.724 21.8434Z" fill="#161C24"/>
<path fill-rule="evenodd" clip-rule="evenodd" d="M13.2466 13.3469C13.2466 12.0398 14.2706 10.9802 15.5339 10.9802L15.7209 10.9802C16.9842 10.9802 18.0082 12.0398 18.0082 13.3468L18.0082 16.6049C18.0082 17.9119 16.9842 18.9715 15.7209 18.9715L15.5339 18.9715C14.2706 18.9715 13.2466 17.9119 13.2466 16.6049L13.2466 13.3469ZM15.5339 11.9916C14.8105 11.9916 14.2241 12.5984 14.2241 13.3469L14.2241 16.6049C14.2241 17.3534 14.8105 17.9601 15.5339 17.9601L15.7209 17.9601C16.4443 17.9601 17.0308 17.3534 17.0308 16.6049L17.0308 13.3468C17.0308 12.5984 16.4443 11.9916 15.7209 11.9916L15.5339 11.9916Z" fill="#3C83D7"/>
<path fill-rule="evenodd" clip-rule="evenodd" d="M11.3579 10.842C11.3579 9.53492 12.382 8.47534 13.6452 8.47534L13.8323 8.47534C15.0955 8.47534 16.1196 9.53492 16.1196 10.842L16.1196 14.1C16.1196 15.407 15.0955 16.4666 13.8323 16.4666L13.6452 16.4666C12.382 16.4666 11.3579 15.407 11.3579 14.1L11.3579 10.842ZM13.6452 9.48672C12.9218 9.48672 12.3354 10.0935 12.3354 10.842L12.3354 14.1C12.3354 14.8485 12.9218 15.4552 13.6452 15.4552L13.8323 15.4552C14.5557 15.4552 15.1421 14.8485 15.1421 14.1L15.1421 10.842C15.1421 10.0935 14.5557 9.48672 13.8323 9.48672L13.6452 9.48672Z" fill="#3C83D7"/>
<path d="M21.1502 7.95138C21.3002 6.73865 21.4169 5.68037 21.5003 4.78227C19.2719 4.35896 16.9935 4.14158 14.6984 4.14158C11.392 4.14158 8.12997 4.58777 4.98468 5.46872C4.95134 6.24097 4.32895 6.8645 3.56207 6.8645C2.77297 6.8645 2.13391 6.20665 2.13391 5.39435C2.13391 4.58205 2.77297 3.9242 3.56207 3.9242C4.04554 3.9242 4.46787 4.17018 4.72906 4.54773C7.96326 3.6439 11.3086 3.18627 14.704 3.18627C17.0268 3.18627 19.3274 3.40365 21.5892 3.82696C21.7503 1.82481 21.7503 0.818019 21.7503 0.806578V0.623525C19.4553 0.211655 17.1046 0 14.704 0C9.54147 0 4.6068 0.978191 0.0611276 2.76868C0.0222282 3.42653 0 4.09582 0 4.76511C0 6.82445 0.18894 8.84376 0.550149 10.8001C0.644619 10.7487 3.67877 9.02109 7.34087 8.15159C9.74152 7.60815 12.2089 7.32785 14.704 7.32785C16.8823 7.32213 19.0385 7.53379 21.1502 7.95138Z" fill="#3C83D7"/>
<path d="M17.7321 24.1917C19.338 22.487 20.7273 20.5878 21.8609 18.5227C23.8393 14.936 25.0174 10.8917 25.3063 6.75584C24.7784 6.53846 24.4116 6.01218 24.4116 5.39438C24.4116 4.58208 25.0507 3.92423 25.8398 3.92423C26.6289 3.92423 27.268 4.58208 27.268 5.39438C27.268 6.06367 26.8345 6.62427 26.2399 6.8016C25.9454 11.0862 24.7284 15.2793 22.6778 18.9918C21.5275 21.0798 20.1327 23.0018 18.5156 24.7351C19.9326 25.679 20.994 26.1309 21.0163 26.1366L21.3497 26.2739C26.3566 20.5878 29.4074 13.0369 29.4074 4.75941C29.4074 4.09012 29.3852 3.42656 29.3463 2.76871C27.2068 1.92209 24.9729 1.26424 22.6778 0.795166C22.6778 0.795166 22.6945 3.1863 22.0666 8.1459C21.6498 11.2464 20.6717 14.2439 19.1769 16.9496C18.1433 18.8259 16.8485 20.5764 15.3647 22.1266C16.1538 22.9503 16.9763 23.6311 17.7321 24.1917Z" fill="#3C83D7"/>
<path d="M10.2308 16.9553C8.89158 14.5241 7.96355 11.8584 7.4912 9.09546C6.42424 9.35288 5.41286 9.68466 4.51262 10.0279C5.06832 13.0254 6.07971 15.8741 7.54121 18.5284C9.16943 21.4859 11.3645 24.163 13.9318 26.3425C14.1541 26.1938 14.4209 26.108 14.7043 26.108C15.4934 26.108 16.1324 26.7658 16.1324 27.5781C16.1324 28.3904 15.4934 29.0483 14.7043 29.0483C13.9152 29.0483 13.2761 28.3904 13.2761 27.5781C13.2761 27.4122 13.3039 27.2463 13.3539 27.0976C10.6921 24.8438 8.41923 22.0694 6.72988 19.0032C5.24615 16.3032 4.20698 13.4087 3.62904 10.3768C2.06195 11.0347 1.02278 11.6239 1.00611 11.6296L0.750488 11.7726C2.59543 20.2903 7.7246 27.5266 14.7043 32C16.8882 30.5985 18.8943 28.9281 20.667 27.029C20.567 26.9889 17.4606 25.6561 14.7043 22.8016C12.9371 21.0912 11.4145 19.1062 10.2308 16.9553Z" fill="#3C83D7"/>
</svg>
