<svg width="60" height="32" viewBox="0 0 60 32" fill="none" xmlns="http://www.w3.org/2000/svg">
<path d="M30.4004 14.3372L28.0518 8.70055H29.4127L31.4658 13.693H30.6648L32.749 8.70055H34.001L31.6447 14.3372H30.4004Z" fill="#3CB65E"/>
<path d="M36.1351 14.4016C35.6581 14.4016 35.2381 14.305 34.8752 14.1117C34.5175 13.9185 34.2401 13.6554 34.0431 13.3226C33.8461 12.9844 33.7476 12.6006 33.7476 12.1711C33.7476 11.7363 33.8435 11.3525 34.0353 11.0196C34.2323 10.6814 34.4993 10.4184 34.8363 10.2305C35.1733 10.0372 35.5544 9.94061 35.9795 9.94061C36.3891 9.94061 36.7572 10.0319 37.0838 10.2144C37.4156 10.3915 37.6775 10.6492 37.8693 10.9874C38.0611 11.3202 38.157 11.7202 38.157 12.1872C38.157 12.2355 38.1544 12.2919 38.1493 12.3563C38.1441 12.4154 38.1389 12.4717 38.1337 12.5254H34.7352V11.7927H37.496L37.0294 12.0101C37.0294 11.7846 36.9853 11.5887 36.8972 11.4222C36.809 11.2558 36.6872 11.127 36.5317 11.0357C36.3761 10.9391 36.1947 10.8908 35.9873 10.8908C35.7799 10.8908 35.5959 10.9391 35.4351 11.0357C35.2796 11.127 35.1578 11.2585 35.0696 11.4303C34.9815 11.5967 34.9374 11.7953 34.9374 12.0262V12.2194C34.9374 12.4556 34.9867 12.665 35.0852 12.8475C35.1889 13.0247 35.3314 13.1616 35.5129 13.2582C35.6995 13.3494 35.9173 13.3951 36.1662 13.3951C36.3891 13.3951 36.5835 13.3602 36.7494 13.2904C36.9205 13.2206 37.076 13.1159 37.216 12.9763L37.8615 13.7011C37.6697 13.9265 37.4286 14.101 37.1383 14.2245C36.8479 14.3426 36.5135 14.4016 36.1351 14.4016Z" fill="#3CB65E"/>
<path d="M38.9647 14.3372V10.005H40.1235V11.229L39.9602 10.8747C40.0846 10.5687 40.2842 10.3379 40.559 10.1822C40.8338 10.0211 41.1682 9.94061 41.5622 9.94061V11.1002C41.5103 11.0948 41.4637 11.0921 41.4222 11.0921C41.3807 11.0867 41.3367 11.084 41.29 11.084C40.9582 11.084 40.6886 11.1834 40.4812 11.382C40.279 11.5752 40.1779 11.8785 40.1779 12.2919V14.3372H38.9647Z" fill="#3CB65E"/>
<path d="M42.2911 14.3372V10.005H43.5043V14.3372H42.2911ZM42.8977 9.40111C42.6748 9.40111 42.4933 9.334 42.3534 9.1998C42.2134 9.06559 42.1434 8.89918 42.1434 8.70055C42.1434 8.50193 42.2134 8.33551 42.3534 8.20131C42.4933 8.0671 42.6748 8 42.8977 8C43.1207 8 43.3021 8.06442 43.4421 8.19326C43.5821 8.31673 43.6521 8.47777 43.6521 8.6764C43.6521 8.88576 43.5821 9.06023 43.4421 9.1998C43.3073 9.334 43.1259 9.40111 42.8977 9.40111Z" fill="#3CB65E"/>
<path d="M44.778 14.3372V9.9084C44.778 9.4199 44.918 9.0307 45.198 8.74082C45.4779 8.44556 45.8772 8.29794 46.3956 8.29794C46.5719 8.29794 46.7404 8.31673 46.9011 8.3543C47.067 8.39188 47.207 8.45093 47.3211 8.53145L47.0022 9.44137C46.9348 9.39305 46.8596 9.35548 46.7767 9.32864C46.6937 9.3018 46.6056 9.28837 46.5123 9.28837C46.336 9.28837 46.1986 9.34206 46.1001 9.44942C46.0068 9.55142 45.9601 9.7071 45.9601 9.91646V10.3191L45.9912 10.8586V14.3372H44.778ZM44.1326 11.0679V10.1017H47.0333V11.0679H44.1326ZM47.7177 14.3372V10.005H48.9309V14.3372H47.7177ZM48.3243 9.40111C48.1013 9.40111 47.9199 9.334 47.7799 9.1998C47.6399 9.06559 47.5699 8.89918 47.5699 8.70055C47.5699 8.50193 47.6399 8.33551 47.7799 8.20131C47.9199 8.0671 48.1013 8 48.3243 8C48.5472 8 48.7287 8.06442 48.8686 8.19326C49.0086 8.31673 49.0786 8.47777 49.0786 8.6764C49.0786 8.88576 49.0086 9.06023 48.8686 9.1998C48.7338 9.334 48.5524 9.40111 48.3243 9.40111Z" fill="#3CB65E"/>
<path d="M52.1292 14.4016C51.6522 14.4016 51.2323 14.305 50.8694 14.1117C50.5116 13.9185 50.2343 13.6554 50.0372 13.3226C49.8402 12.9844 49.7417 12.6006 49.7417 12.1711C49.7417 11.7363 49.8376 11.3525 50.0295 11.0196C50.2265 10.6814 50.4935 10.4184 50.8305 10.2305C51.1675 10.0372 51.5485 9.94061 51.9737 9.94061C52.3833 9.94061 52.7514 10.0319 53.078 10.2144C53.4098 10.3915 53.6716 10.6492 53.8634 10.9874C54.0553 11.3202 54.1512 11.7202 54.1512 12.1872C54.1512 12.2355 54.1486 12.2919 54.1434 12.3563C54.1382 12.4154 54.133 12.4717 54.1279 12.5254H50.7294V11.7927H53.4902L53.0235 12.0101C53.0235 11.7846 52.9795 11.5887 52.8913 11.4222C52.8032 11.2558 52.6814 11.127 52.5258 11.0357C52.3703 10.9391 52.1888 10.8908 51.9814 10.8908C51.7741 10.8908 51.59 10.9391 51.4293 11.0357C51.2738 11.127 51.1519 11.2585 51.0638 11.4303C50.9756 11.5967 50.9316 11.7953 50.9316 12.0262V12.2194C50.9316 12.4556 50.9808 12.665 51.0793 12.8475C51.183 13.0247 51.3256 13.1616 51.5071 13.2582C51.6937 13.3494 51.9115 13.3951 52.1603 13.3951C52.3833 13.3951 52.5777 13.3602 52.7436 13.2904C52.9147 13.2206 53.0702 13.1159 53.2102 12.9763L53.8557 13.7011C53.6638 13.9265 53.4228 14.101 53.1324 14.2245C52.8421 14.3426 52.5077 14.4016 52.1292 14.4016Z" fill="#3CB65E"/>
<path d="M56.7553 14.4016C56.3613 14.4016 56.0062 14.3104 55.6899 14.1278C55.3736 13.9399 55.1222 13.6796 54.9356 13.3468C54.7541 13.0139 54.6634 12.622 54.6634 12.1711C54.6634 11.7148 54.7541 11.3202 54.9356 10.9874C55.1222 10.6546 55.3736 10.3969 55.6899 10.2144C56.0062 10.0319 56.3613 9.94061 56.7553 9.94061C57.1079 9.94061 57.4164 10.0211 57.6808 10.1822C57.9452 10.3432 58.15 10.5875 58.2951 10.9149C58.4403 11.2424 58.5129 11.6611 58.5129 12.1711C58.5129 12.6757 58.4429 13.0944 58.3029 13.4273C58.1629 13.7547 57.9607 13.999 57.6963 14.16C57.4371 14.3211 57.1234 14.4016 56.7553 14.4016ZM56.9653 13.3709C57.1623 13.3709 57.3412 13.3226 57.5019 13.226C57.6626 13.1293 57.7896 12.9925 57.883 12.8153C57.9815 12.6328 58.0307 12.4181 58.0307 12.1711C58.0307 11.9188 57.9815 11.7041 57.883 11.5269C57.7896 11.3498 57.6626 11.2129 57.5019 11.1163C57.3412 11.0196 57.1623 10.9713 56.9653 10.9713C56.7631 10.9713 56.5816 11.0196 56.4209 11.1163C56.2602 11.2129 56.1306 11.3498 56.0321 11.5269C55.9388 11.7041 55.8921 11.9188 55.8921 12.1711C55.8921 12.4181 55.9388 12.6328 56.0321 12.8153C56.1306 12.9925 56.2602 13.1293 56.4209 13.226C56.5816 13.3226 56.7631 13.3709 56.9653 13.3709ZM58.0618 14.3372V13.4514L58.0852 12.1631L58.0074 10.8827V8.36236H59.2206V14.3372H58.0618Z" fill="#3CB65E"/>
<path d="M28.6817 24V18.0252H29.8949V24H28.6817Z" fill="#3CB65E"/>
<path d="M31.0208 24V19.6678H32.234V24H31.0208ZM31.6274 19.0639C31.4045 19.0639 31.223 18.9968 31.083 18.8626C30.943 18.7284 30.873 18.562 30.873 18.3634C30.873 18.1647 30.943 17.9983 31.083 17.8641C31.223 17.7299 31.4045 17.6628 31.6274 17.6628C31.8503 17.6628 32.0318 17.7272 32.1718 17.8561C32.3118 17.9795 32.3818 18.1406 32.3818 18.3392C32.3818 18.5486 32.3118 18.723 32.1718 18.8626C32.037 18.9968 31.8555 19.0639 31.6274 19.0639Z" fill="#3CB65E"/>
<path d="M35.903 19.6034C36.2348 19.6034 36.5303 19.6732 36.7895 19.8128C37.0539 19.947 37.2613 20.1564 37.4117 20.4409C37.562 20.72 37.6372 21.0797 37.6372 21.5199V24H36.424V21.7131C36.424 21.3642 36.3488 21.1065 36.1985 20.9401C36.0533 20.7737 35.8459 20.6905 35.5763 20.6905C35.3845 20.6905 35.2108 20.7334 35.0553 20.8193C34.9049 20.8998 34.7857 21.026 34.6976 21.1978C34.6146 21.3696 34.5731 21.5897 34.5731 21.8581V24H33.3599V19.6678H34.5187V20.8676L34.3009 20.5053C34.4513 20.2154 34.6664 19.9926 34.9464 19.8369C35.2264 19.6813 35.5452 19.6034 35.903 19.6034Z" fill="#3CB65E"/>
<path d="M39.7401 23.1142L39.7712 21.5843L41.7232 19.6678H43.1697L41.2955 21.6407L40.6655 22.1721L39.7401 23.1142ZM38.7369 24V18.0252H39.9501V24H38.7369ZM41.8554 24L40.44 22.1802L41.2021 21.2058L43.3252 24H41.8554Z" fill="#3CB65E"/>
<path d="M17.6283 3.48673C15.9355 2.94193 12.6853 0.699952 11.6913 0C10.6794 0.727192 7.31654 3.09945 5.75905 3.63714C4.58233 4.04219 1.23722 4.30867 0 4.39513V20.8564C0 22.4908 0.790015 24.0435 2.11145 25.0088L11.6889 32L21.2664 25.0088C22.5878 24.0435 23.3778 22.4908 23.3778 20.8564V4.37618C22.1406 4.23643 18.6875 3.82783 17.6283 3.48673ZM11.6889 25.8947C6.22523 25.8947 1.7805 21.4569 1.7805 16.0018C1.7805 10.5467 6.22523 6.10889 11.6889 6.10889C17.1526 6.10889 21.5973 10.5467 21.5973 16.0018C21.5973 21.4569 17.1514 25.8947 11.6889 25.8947Z" fill="#3CB65E"/>
<path d="M10.5684 16.523C10.2801 16.8108 9.81275 16.8108 9.5245 16.523L6.763 13.7658L4.52344 16.0019L10.0464 21.5174L18.854 12.7236L16.6145 10.4875L10.5684 16.523Z" fill="#3CB65E"/>
</svg>
