<svg width="24" height="24" viewBox="0 0 24 24" fill="none" xmlns="http://www.w3.org/2000/svg">
<rect width="24" height="24" rx="4" fill="#FEFEFE"/>
<rect x="0.25" y="0.25" width="23.5" height="23.5" rx="3.75" stroke="#DDEBFF" stroke-opacity="0.5" stroke-width="0.5"/>
<path d="M7.83219 9.20515V10.6669H7.73493C7.12275 10.6669 6.625 11.1647 6.625 11.7769V17.8901C6.625 18.5022 7.12275 19 7.73493 19H16.2654C16.8776 19 17.3753 18.5022 17.3753 17.8901V11.774C17.3753 11.1618 16.8776 10.6641 16.2654 10.6641H16.2368V9.20229C16.2368 6.88517 14.3516 5 12.0345 5C9.71736 5.00286 7.83219 6.88803 7.83219 9.20515ZM12.6581 15.1038C12.5723 15.1667 12.5494 15.2268 12.5494 15.3269C12.5523 15.7761 12.5523 16.2223 12.5523 16.6714C12.5608 16.8574 12.4664 17.0405 12.3005 17.1234C11.9086 17.3237 11.5167 17.0433 11.5167 16.6714V16.6686C11.5167 16.2195 11.5167 15.7703 11.5196 15.3212C11.5196 15.2297 11.4995 15.1696 11.4194 15.1095C11.0132 14.8092 10.8788 14.2971 11.0819 13.848C11.2793 13.4103 11.7627 13.1528 12.2176 13.2444C12.7239 13.3474 13.0758 13.7536 13.0815 14.2599C13.0815 14.6118 12.9413 14.8978 12.6581 15.1038ZM9.67159 9.20515C9.67159 7.90069 10.7329 6.84226 12.0345 6.84226C13.3389 6.84226 14.3974 7.90356 14.3974 9.20515V10.6669H9.67159V9.20515Z" fill="#3C83D7"/>
</svg>
